<!-- <svg viewBox="0 0 100 100" xmlns="http://www.w3.org/2000/svg">
  <defs>
    <linearGradient id="gradient" x1="0%" y1="0%" x2="0%" y2="100%">
      <stop offset="54%" stop-color="#295790" />
      <stop offset="99%" stop-color="#337CD9" />
    </linearGradient>
  </defs>
  <rect x="-15" y="0" width="100" height="80" rx="20" ry="20" fill="url(#gradient)" style="transform: rotate(-24.6deg); transform-origin: 0 0; box-shadow: 0px 14px 72px rgba(5, 52, 119, 0.35);" />
</svg> -->

<svg viewBox="0 0 80 50" fill="none" xmlns="http://www.w3.org/2000/svg">
  <defs>
    <linearGradient id="gradient" x1="0%" y1="0%" x2="0%" y2="100%">
      <stop offset="54%" stop-color="#295790" />
      <stop offset="99%" stop-color="#337CD9" />
    </linearGradient>
  </defs>
  <rect x="-10" y="-10" width="80" height="50" rx="10" ry="10" fill="url(#gradient)" style="transform: rotate(-24.6deg); transform-origin: 0 0; box-shadow: 0px 14px 72px rgba(5, 52, 119, 0.35);" />
  <path fill-rule="evenodd" clip-rule="evenodd" d="M52.7266 17.8503C54.131 18.3122 55.5432 18.3471 56.9416 18.8267C59.0231 19.5406 62.4437 19.1731 62.8746 21.3309C63.3288 23.6046 59.6975 24.5264 58.4733 26.4954C57.686 27.7618 58.1399 29.5752 57.0904 30.6344C55.9675 31.7678 54.2593 31.8522 52.7266 32.2955C50.4752 32.9465 48.0238 35.0799 46.0414 33.8297C44.0966 32.6032 44.6684 29.5342 44.7031 27.2352C44.7287 25.541 46.0495 24.1982 46.2121 22.5116C46.4527 20.0166 43.8265 16.6427 45.865 15.1841C47.9107 13.7204 50.3371 17.0645 52.7266 17.8503Z" fill="#183953"/>
<mask id="mask0_227_6" style="mask-type:alpha" maskUnits="userSpaceOnUse" x="42" y="13" width="25" height="22">
<path fill-rule="evenodd" clip-rule="evenodd" d="M54.9143 13.0053C56.6533 13.0753 57.6737 15.0479 59.2965 15.6771C61.3254 16.4638 64.0307 15.5677 65.5475 17.1282C67.0227 18.646 66.7191 21.1512 66.6741 23.2673C66.6297 25.3517 66.211 27.3873 65.2893 29.2573C64.3267 31.2105 63.1923 33.2549 61.2584 34.2557C59.3445 35.2462 57.0183 35.0927 54.9143 34.6267C53.0338 34.2101 51.7805 32.5193 50.0088 31.7638C47.9174 30.8719 45.1131 31.496 43.5978 29.8008C42.0972 28.1221 41.5431 25.3437 42.414 23.2673C43.3151 21.1187 46.3667 20.9328 48.0099 19.2811C49.1078 18.1774 49.1718 16.3634 50.3238 15.3163C51.6134 14.1441 53.1728 12.9353 54.9143 13.0053Z" fill="#C4C4C4"/>
</mask>
<g mask="url(#mask0_227_6)">
<path fill-rule="evenodd" clip-rule="evenodd" d="M54.9143 13.0053C56.6533 13.0753 57.6737 15.0479 59.2965 15.6771C61.3254 16.4638 64.0307 15.5677 65.5475 17.1282C67.0227 18.646 66.7191 21.1512 66.6741 23.2673C66.6297 25.3517 66.211 27.3873 65.2893 29.2573C64.3267 31.2105 63.1923 33.2549 61.2584 34.2557C59.3445 35.2462 57.0183 35.0927 54.9143 34.6267C53.0338 34.2101 51.7805 32.5193 50.0088 31.7638C47.9174 30.8719 45.1131 31.496 43.5978 29.8008C42.0972 28.1221 41.5431 25.3437 42.414 23.2673C43.3151 21.1187 46.3667 20.9328 48.0099 19.2811C49.1078 18.1774 49.1718 16.3634 50.3238 15.3163C51.6134 14.1441 53.1728 12.9353 54.9143 13.0053Z" fill="#FF5B06"/>
</g>
</svg>